<?xml version="1.0" encoding="UTF-8" standalone="no"?>
<!DOCTYPE svg PUBLIC "-//W3C//DTD SVG 1.1//EN"
 "http://www.w3.org/Graphics/SVG/1.1/DTD/svg11.dtd">
<!-- Generated by graphviz version 2.40.1 (20161225.0304)
 -->
<!-- Title: G Pages: 1 -->
<svg width="597pt" height="152pt"
 viewBox="0.00 0.00 596.96 152.00" xmlns="http://www.w3.org/2000/svg" xmlns:xlink="http://www.w3.org/1999/xlink">
<g id="graph0" class="graph" transform="scale(1 1) rotate(0) translate(4 148)">
<title>G</title>
<polygon fill="#ffffff" stroke="transparent" points="-4,4 -4,-148 592.9642,-148 592.9642,4 -4,4"/>
<!-- A -->
<g id="node1" class="node">
<title>A</title>
<ellipse fill="none" stroke="#000000" cx="76.6932" cy="-72" rx="76.8869" ry="18"/>
<text text-anchor="middle" x="76.6932" y="-68.3" font-family="Times,serif" font-size="14.00" fill="#000000">Angela da Foligno</text>
</g>
<!-- O -->
<g id="node2" class="node">
<title>O</title>
<ellipse fill="none" stroke="#000000" cx="280.2837" cy="-72" rx="29.795" ry="18"/>
<text text-anchor="middle" x="280.2837" y="-68.3" font-family="Times,serif" font-size="14.00" fill="#000000">Liber</text>
</g>
<!-- A&#45;&gt;O -->
<g id="edge1" class="edge">
<title>A&#45;&gt;O</title>
<path fill="none" stroke="#000000" d="M153.662,-72C183.1221,-72 215.5366,-72 240.1939,-72"/>
<polygon fill="#000000" stroke="#000000" points="240.2553,-75.5001 250.2552,-72 240.2552,-68.5001 240.2553,-75.5001"/>
<text text-anchor="middle" x="201.8864" y="-75.8" font-family="Times,serif" font-size="14.00" fill="#000000">è autrice di</text>
</g>
<!-- G1 -->
<g id="node3" class="node">
<title>G1</title>
<ellipse fill="none" stroke="#000000" cx="494.0727" cy="-126" rx="81.7856" ry="18"/>
<text text-anchor="middle" x="494.0727" y="-122.3" font-family="Times,serif" font-size="14.00" fill="#000000">Letteratura religiosa</text>
</g>
<!-- O&#45;&gt;G1 -->
<g id="edge2" class="edge">
<title>O&#45;&gt;G1</title>
<path fill="none" stroke="#000000" d="M304.86,-82.6749C312.264,-85.638 320.4724,-88.6762 328.1811,-91 357.5504,-99.8534 390.499,-107.2987 419.246,-113.0152"/>
<polygon fill="#000000" stroke="#000000" points="418.7406,-116.4826 429.2261,-114.9646 420.0826,-109.6124 418.7406,-116.4826"/>
<text text-anchor="middle" x="354.6811" y="-107.8" font-family="Times,serif" font-size="14.00" fill="#000000">ha genere</text>
</g>
<!-- G2 -->
<g id="node4" class="node">
<title>G2</title>
<ellipse fill="none" stroke="#000000" cx="494.0727" cy="-72" rx="94.7833" ry="18"/>
<text text-anchor="middle" x="494.0727" y="-68.3" font-family="Times,serif" font-size="14.00" fill="#000000">Autobiografia spirituale</text>
</g>
<!-- O&#45;&gt;G2 -->
<g id="edge3" class="edge">
<title>O&#45;&gt;G2</title>
<path fill="none" stroke="#000000" d="M310.461,-72C331.1561,-72 359.9595,-72 388.6242,-72"/>
<polygon fill="#000000" stroke="#000000" points="388.744,-75.5001 398.744,-72 388.744,-68.5001 388.744,-75.5001"/>
<text text-anchor="middle" x="354.6811" y="-75.8" font-family="Times,serif" font-size="14.00" fill="#000000">ha genere</text>
</g>
<!-- G3 -->
<g id="node5" class="node">
<title>G3</title>
<ellipse fill="none" stroke="#000000" cx="494.0727" cy="-18" rx="37.8943" ry="18"/>
<text text-anchor="middle" x="494.0727" y="-14.3" font-family="Times,serif" font-size="14.00" fill="#000000">Mistica</text>
</g>
<!-- O&#45;&gt;G3 -->
<g id="edge4" class="edge">
<title>O&#45;&gt;G3</title>
<path fill="none" stroke="#000000" d="M304.86,-61.3251C312.264,-58.362 320.4724,-55.3238 328.1811,-53 368.0234,-40.9895 414.4531,-31.5704 448.0435,-25.5433"/>
<polygon fill="#000000" stroke="#000000" points="448.7936,-28.9652 458.0344,-23.7827 447.5787,-22.0714 448.7936,-28.9652"/>
<text text-anchor="middle" x="354.6811" y="-56.8" font-family="Times,serif" font-size="14.00" fill="#000000">ha genere</text>
</g>
</g>
</svg>
