<?xml version="1.0" encoding="UTF-8" standalone="no"?>
<!DOCTYPE svg PUBLIC "-//W3C//DTD SVG 1.1//EN"
 "http://www.w3.org/Graphics/SVG/1.1/DTD/svg11.dtd">
<!-- Generated by graphviz version 2.40.1 (20161225.0304)
 -->
<!-- Title: G Pages: 1 -->
<svg width="1554pt" height="206pt"
 viewBox="0.00 0.00 1553.57 206.00" xmlns="http://www.w3.org/2000/svg" xmlns:xlink="http://www.w3.org/1999/xlink">
<g id="graph0" class="graph" transform="scale(1 1) rotate(0) translate(4 202)">
<title>G</title>
<polygon fill="#ffffff" stroke="transparent" points="-4,4 -4,-202 1549.5744,-202 1549.5744,4 -4,4"/>
<!-- A -->
<g id="node1" class="node">
<title>A</title>
<polygon fill="none" stroke="#000000" points="329.5,-55 3.5,-55 3.5,-19 329.5,-19 329.5,-55"/>
<text text-anchor="middle" x="166.5" y="-33.3" font-family="Times,serif" font-size="14.00" fill="#000000">https://tmancinelli.github.io/biflow_website/person?id=2</text>
</g>
<!-- O -->
<g id="node2" class="node">
<title>O</title>
<polygon fill="none" stroke="#000000" points="958.5,-90 640.5,-90 640.5,-54 958.5,-54 958.5,-90"/>
<text text-anchor="middle" x="799.5" y="-68.3" font-family="Times,serif" font-size="14.00" fill="#000000">https://tmancinelli.github.io/biflow_website/work?id=1</text>
</g>
<!-- A&#45;&gt;O -->
<g id="edge1" class="edge">
<title>A&#45;&gt;O</title>
<path fill="none" stroke="#ff0000" stroke-width="2" d="M329.5132,-46.0134C421.7603,-51.1139 536.9598,-57.4836 630.2182,-62.64"/>
<polygon fill="#ff0000" stroke="#ff0000" stroke-width="2" points="630.1448,-66.1412 640.3229,-63.1987 630.5314,-59.1519 630.1448,-66.1412"/>
<text text-anchor="middle" x="485" y="-65.8" font-family="Times,serif" font-size="14.00" fill="#000000">http://tmancinelli.github.io/biflow/0.1#author</text>
</g>
<!-- N -->
<g id="node3" class="node">
<title>N</title>
<ellipse fill="none" stroke="#000000" cx="799.5" cy="-18" rx="86.3847" ry="18"/>
<text text-anchor="middle" x="799.5" y="-14.3" font-family="Times,serif" font-size="14.00" fill="#000000">&quot;Angela Da Foligno&quot;</text>
</g>
<!-- A&#45;&gt;N -->
<g id="edge2" class="edge">
<title>A&#45;&gt;N</title>
<path fill="none" stroke="#000000" d="M329.9654,-27.8438C337.0721,-27.5393 344.1079,-27.2559 351,-27 472.336,-22.4957 612.2267,-20.1397 703.0701,-18.9859"/>
<polygon fill="#000000" stroke="#000000" points="703.1207,-22.4857 713.0762,-18.8612 703.0334,-15.4862 703.1207,-22.4857"/>
<text text-anchor="middle" x="485" y="-30.8" font-family="Times,serif" font-size="14.00" fill="#000000">http://tmancinelli.github.io/biflow/0.1#has_name</text>
</g>
<!-- T -->
<g id="node4" class="node">
<title>T</title>
<ellipse fill="none" stroke="#000000" cx="1401.2872" cy="-72" rx="37.8943" ry="18"/>
<text text-anchor="middle" x="1401.2872" y="-68.3" font-family="Times,serif" font-size="14.00" fill="#000000">&quot;Liber&quot;</text>
</g>
<!-- O&#45;&gt;T -->
<g id="edge3" class="edge">
<title>O&#45;&gt;T</title>
<path fill="none" stroke="#000000" d="M958.7937,-72C1090.4982,-72 1269.0891,-72 1353.4225,-72"/>
<polygon fill="#000000" stroke="#000000" points="1353.4727,-75.5001 1363.4727,-72 1353.4726,-68.5001 1353.4727,-75.5001"/>
<text text-anchor="middle" x="1109.5" y="-75.8" font-family="Times,serif" font-size="14.00" fill="#000000">http://tmancinelli.github.io/biflow/0.1#has_title</text>
</g>
<!-- A2 -->
<g id="node5" class="node">
<title>A2</title>
<polygon fill="none" stroke="#000000" points="333,-163 0,-163 0,-127 333,-127 333,-163"/>
<text text-anchor="middle" x="166.5" y="-141.3" font-family="Times,serif" font-size="14.00" fill="#000000">https://tmancinelli.github.io/biflow_website/person?id=82</text>
</g>
<!-- O2 -->
<g id="node6" class="node">
<title>O2</title>
<polygon fill="none" stroke="#000000" points="962,-198 637,-198 637,-162 962,-162 962,-198"/>
<text text-anchor="middle" x="799.5" y="-176.3" font-family="Times,serif" font-size="14.00" fill="#000000">https://tmancinelli.github.io/biflow_website/work?id=18</text>
</g>
<!-- A2&#45;&gt;O2 -->
<g id="edge4" class="edge">
<title>A2&#45;&gt;O2</title>
<path fill="none" stroke="#ff0000" stroke-width="2" d="M333.2272,-154.2187C423.6989,-159.2211 535.3909,-165.3968 626.7756,-170.4497"/>
<polygon fill="#ff0000" stroke="#ff0000" stroke-width="2" points="626.7871,-173.9556 636.9651,-171.0131 627.1737,-166.9662 626.7871,-173.9556"/>
<text text-anchor="middle" x="485" y="-172.8" font-family="Times,serif" font-size="14.00" fill="#000000">http://tmancinelli.github.io/biflow/0.1#author</text>
</g>
<!-- N2 -->
<g id="node7" class="node">
<title>N2</title>
<ellipse fill="none" stroke="#000000" cx="799.5" cy="-126" rx="100.1823" ry="18"/>
<text text-anchor="middle" x="799.5" y="-122.3" font-family="Times,serif" font-size="14.00" fill="#000000">&quot;Aldobrandino da Siena&quot;</text>
</g>
<!-- A2&#45;&gt;N2 -->
<g id="edge5" class="edge">
<title>A2&#45;&gt;N2</title>
<path fill="none" stroke="#000000" d="M333.4302,-135.6968C339.3591,-135.4477 345.2299,-135.2142 351,-135 466.3349,-130.7184 598.4344,-128.378 689.2393,-127.166"/>
<polygon fill="#000000" stroke="#000000" points="689.321,-130.6654 699.2743,-127.0345 689.2292,-123.666 689.321,-130.6654"/>
<text text-anchor="middle" x="485" y="-138.8" font-family="Times,serif" font-size="14.00" fill="#000000">http://tmancinelli.github.io/biflow/0.1#has_name</text>
</g>
<!-- T2 -->
<g id="node8" class="node">
<title>T2</title>
<ellipse fill="none" stroke="#000000" cx="1401.2872" cy="-180" rx="144.0747" ry="18"/>
<text text-anchor="middle" x="1401.2872" y="-176.3" font-family="Times,serif" font-size="14.00" fill="#000000">&quot;Régime du corps, Régime du corps&quot;</text>
</g>
<!-- O2&#45;&gt;T2 -->
<g id="edge6" class="edge">
<title>O2&#45;&gt;T2</title>
<path fill="none" stroke="#000000" d="M962.3523,-180C1050.748,-180 1159.4368,-180 1246.5428,-180"/>
<polygon fill="#000000" stroke="#000000" points="1246.7854,-183.5001 1256.7854,-180 1246.7853,-176.5001 1246.7854,-183.5001"/>
<text text-anchor="middle" x="1109.5" y="-183.8" font-family="Times,serif" font-size="14.00" fill="#000000">http://tmancinelli.github.io/biflow/0.1#has_title</text>
</g>
</g>
</svg>
