<?xml version="1.0" encoding="UTF-8" standalone="no"?>
<!DOCTYPE svg PUBLIC "-//W3C//DTD SVG 1.1//EN"
 "http://www.w3.org/Graphics/SVG/1.1/DTD/svg11.dtd">
<!-- Generated by graphviz version 2.40.1 (20161225.0304)
 -->
<!-- Title: G Pages: 1 -->
<svg width="942pt" height="98pt"
 viewBox="0.00 0.00 942.13 98.00" xmlns="http://www.w3.org/2000/svg" xmlns:xlink="http://www.w3.org/1999/xlink">
<g id="graph0" class="graph" transform="scale(1 1) rotate(0) translate(4 94)">
<title>G</title>
<polygon fill="#ffffff" stroke="transparent" points="-4,4 -4,-94 938.1257,-94 938.1257,4 -4,4"/>
<!-- A -->
<g id="node1" class="node">
<title>A</title>
<ellipse fill="none" stroke="#000000" cx="211.8812" cy="-45" rx="211.7625" ry="18"/>
<text text-anchor="middle" x="211.8812" y="-41.3" font-family="Times,serif" font-size="14.00" fill="#0000ff">https://tmancinelli.github.io/biflow_website/person?id=2</text>
</g>
<!-- O -->
<g id="node2" class="node">
<title>O</title>
<ellipse fill="none" stroke="#000000" cx="727.4441" cy="-72" rx="206.8635" ry="18"/>
<text text-anchor="middle" x="727.4441" y="-68.3" font-family="Times,serif" font-size="14.00" fill="#0000ff">https://tmancinelli.github.io/biflow_website/work?id=1</text>
</g>
<!-- A&#45;&gt;O -->
<g id="edge1" class="edge">
<title>A&#45;&gt;O</title>
<path fill="none" stroke="#458b74" d="M392.5622,-54.4623C440.2558,-56.96 491.8275,-59.6608 539.876,-62.1771"/>
<polygon fill="#458b74" stroke="#458b74" points="539.9036,-65.6832 550.0729,-62.7111 540.2697,-58.6928 539.9036,-65.6832"/>
<text text-anchor="middle" x="472.2624" y="-63.8" font-family="Times,serif" font-size="14.00" fill="#ff0000">è autrice di</text>
</g>
<!-- N -->
<g id="node3" class="node">
<title>N</title>
<polygon fill="none" stroke="#000000" points="793.9441,-36 660.9441,-36 660.9441,0 793.9441,0 793.9441,-36"/>
<text text-anchor="middle" x="727.4441" y="-14.3" font-family="Times,serif" font-size="14.00" fill="#0000ff">&quot;Angela Da Foligno&quot;</text>
</g>
<!-- A&#45;&gt;N -->
<g id="edge2" class="edge">
<title>A&#45;&gt;N</title>
<path fill="none" stroke="#458b74" d="M392.5622,-35.5377C480.9106,-30.9109 582.5663,-25.5872 650.4841,-22.0304"/>
<polygon fill="#458b74" stroke="#458b74" points="650.8674,-25.5152 660.6707,-21.4969 650.5013,-18.5248 650.8674,-25.5152"/>
<text text-anchor="middle" x="472.2624" y="-35.8" font-family="Times,serif" font-size="14.00" fill="#ff0000">ha nome</text>
</g>
</g>
</svg>
