<?xml version="1.0" encoding="UTF-8" standalone="no"?>
<!DOCTYPE svg PUBLIC "-//W3C//DTD SVG 1.1//EN"
 "http://www.w3.org/Graphics/SVG/1.1/DTD/svg11.dtd">
<!-- Generated by graphviz version 2.40.1 (20161225.0304)
 -->
<!-- Title: G Pages: 1 -->
<svg width="654pt" height="152pt"
 viewBox="0.00 0.00 654.00 152.00" xmlns="http://www.w3.org/2000/svg" xmlns:xlink="http://www.w3.org/1999/xlink">
<g id="graph0" class="graph" transform="scale(1 1) rotate(0) translate(4 148)">
<title>G</title>
<polygon fill="#ffffff" stroke="transparent" points="-4,4 -4,-148 650,-148 650,4 -4,4"/>
<!-- A -->
<g id="node1" class="node">
<title>A</title>
<polygon fill="none" stroke="#000000" points="266,-90 0,-90 0,-54 266,-54 266,-90"/>
<text text-anchor="middle" x="133" y="-68.3" font-family="Times,serif" font-size="14.00" fill="#0000ff">http://tmancinelli.github.io/biflow/0.1#Person</text>
</g>
<!-- B -->
<g id="node2" class="node">
<title>B</title>
<polygon fill="none" stroke="#000000" points="553.5,-144 482.5,-144 482.5,-108 553.5,-108 553.5,-144"/>
<text text-anchor="middle" x="518" y="-122.3" font-family="Times,serif" font-size="14.00" fill="#0000ff">rdfs:Class</text>
</g>
<!-- A&#45;&gt;B -->
<g id="edge1" class="edge">
<title>A&#45;&gt;B</title>
<path fill="none" stroke="#458b74" d="M261.467,-90.0187C334.0919,-100.2051 420.4397,-112.3162 472.1486,-119.5689"/>
<polygon fill="#458b74" stroke="#458b74" points="471.9375,-123.0735 482.3268,-120.9965 472.9099,-116.1413 471.9375,-123.0735"/>
<text text-anchor="middle" x="328" y="-108.8" font-family="Times,serif" font-size="14.00" fill="#ff0000">rdf:type</text>
</g>
<!-- C -->
<g id="node3" class="node">
<title>C</title>
<polygon fill="none" stroke="#000000" points="646,-90 390,-90 390,-54 646,-54 646,-90"/>
<text text-anchor="middle" x="518" y="-68.3" font-family="Times,serif" font-size="14.00" fill="#0000ff">http://erlangen&#45;crm.org/current/E39_Author</text>
</g>
<!-- A&#45;&gt;C -->
<g id="edge2" class="edge">
<title>A&#45;&gt;C</title>
<path fill="none" stroke="#458b74" d="M266.0343,-72C302.6889,-72 342.5334,-72 379.4895,-72"/>
<polygon fill="#458b74" stroke="#458b74" points="379.8314,-75.5001 389.8314,-72 379.8314,-68.5001 379.8314,-75.5001"/>
<text text-anchor="middle" x="328" y="-75.8" font-family="Times,serif" font-size="14.00" fill="#ff0000">rdfs:subClassOf</text>
</g>
<!-- D -->
<g id="node4" class="node">
<title>D</title>
<ellipse fill="none" stroke="#000000" cx="518" cy="-18" rx="42.4939" ry="18"/>
<text text-anchor="middle" x="518" y="-14.3" font-family="Times,serif" font-size="14.00" fill="#0000ff">&quot;Person&quot;</text>
</g>
<!-- A&#45;&gt;D -->
<g id="edge3" class="edge">
<title>A&#45;&gt;D</title>
<path fill="none" stroke="#458b74" d="M261.467,-53.9813C331.9885,-44.0899 415.4495,-32.3837 467.5697,-25.0733"/>
<polygon fill="#458b74" stroke="#458b74" points="468.1459,-28.5269 477.5627,-23.6717 467.1735,-21.5947 468.1459,-28.5269"/>
<text text-anchor="middle" x="328" y="-52.8" font-family="Times,serif" font-size="14.00" fill="#ff0000">rdfs:label</text>
</g>
</g>
</svg>
