<?xml version="1.0" encoding="UTF-8" standalone="no"?>
<!DOCTYPE svg PUBLIC "-//W3C//DTD SVG 1.1//EN"
 "http://www.w3.org/Graphics/SVG/1.1/DTD/svg11.dtd">
<!-- Generated by graphviz version 2.40.1 (20161225.0304)
 -->
<!-- Title: G Pages: 1 -->
<svg width="749pt" height="98pt"
 viewBox="0.00 0.00 749.00 98.00" xmlns="http://www.w3.org/2000/svg" xmlns:xlink="http://www.w3.org/1999/xlink">
<g id="graph0" class="graph" transform="scale(1 1) rotate(0) translate(4 94)">
<title>G</title>
<polygon fill="#ffffff" stroke="transparent" points="-4,4 -4,-94 745,-94 745,4 -4,4"/>
<!-- A -->
<g id="node1" class="node">
<title>A</title>
<polygon fill="none" stroke="#000000" points="326,-63 0,-63 0,-27 326,-27 326,-63"/>
<text text-anchor="middle" x="163" y="-41.3" font-family="Times,serif" font-size="14.00" fill="#000000">https://tmancinelli.github.io/biflow_website/person?id=2</text>
</g>
<!-- O -->
<g id="node2" class="node">
<title>O</title>
<polygon fill="none" stroke="#000000" points="741,-90 423,-90 423,-54 741,-54 741,-90"/>
<text text-anchor="middle" x="582" y="-68.3" font-family="Times,serif" font-size="14.00" fill="#000000">https://tmancinelli.github.io/biflow_website/work?id=1</text>
</g>
<!-- A&#45;&gt;O -->
<g id="edge1" class="edge">
<title>A&#45;&gt;O</title>
<path fill="none" stroke="#000000" d="M326.1961,-55.5162C354.5616,-57.3441 384.1192,-59.2487 412.6451,-61.0869"/>
<polygon fill="#000000" stroke="#000000" points="412.484,-64.5837 422.6884,-61.7341 412.9342,-57.5982 412.484,-64.5837"/>
<text text-anchor="middle" x="374.5" y="-63.8" font-family="Times,serif" font-size="14.00" fill="#000000">è autrice di</text>
</g>
<!-- N -->
<g id="node3" class="node">
<title>N</title>
<ellipse fill="none" stroke="#000000" cx="582" cy="-18" rx="86.3847" ry="18"/>
<text text-anchor="middle" x="582" y="-14.3" font-family="Times,serif" font-size="14.00" fill="#000000">&quot;Angela Da Foligno&quot;</text>
</g>
<!-- A&#45;&gt;N -->
<g id="edge2" class="edge">
<title>A&#45;&gt;N</title>
<path fill="none" stroke="#000000" d="M326.1961,-34.4838C381.543,-30.9173 441.4285,-27.0583 489.3331,-23.9714"/>
<polygon fill="#000000" stroke="#000000" points="489.6134,-27.4607 499.3676,-23.3248 489.1632,-20.4752 489.6134,-27.4607"/>
<text text-anchor="middle" x="374.5" y="-36.8" font-family="Times,serif" font-size="14.00" fill="#000000">ha nome</text>
</g>
</g>
</svg>
